<svg width="12" height="12" viewBox="0 0 12 12" fill="none" xmlns="http://www.w3.org/2000/svg">
<path d="M11.4687 6.73011H10.2031C10.1312 6.73011 10.0625 6.69886 10.014 6.64418L6.59371 2.70199V11.5004C6.59371 11.5692 6.53746 11.6254 6.46871 11.6254H5.53121C5.46246 11.6254 5.40621 11.5692 5.40621 11.5004V2.70199L1.9859 6.64418C1.93902 6.69886 1.87027 6.73011 1.79683 6.73011H0.531208C0.424958 6.73011 0.367145 6.60355 0.437458 6.52386L5.6234 0.547302C5.67027 0.493222 5.72823 0.44985 5.79333 0.420125C5.85844 0.3904 5.92917 0.375016 6.00074 0.375016C6.07231 0.375016 6.14304 0.3904 6.20815 0.420125C6.27325 0.44985 6.33121 0.493222 6.37808 0.547302L11.5625 6.52386C11.6328 6.60511 11.575 6.73011 11.4687 6.73011Z" fill="white"/>
</svg>
