<svg width="106" height="37" viewBox="0 0 106 37" fill="none" xmlns="http://www.w3.org/2000/svg">
<path d="M5.80563 20.4469V29H2.6272V7.93774H6.22852C7.9928 7.93774 9.3251 8.06052 10.2254 8.30606C11.1349 8.55161 11.9352 9.01541 12.6263 9.69748C13.8358 10.8797 14.4406 12.3712 14.4406 14.1718C14.4406 16.0998 13.7949 17.6277 12.5035 18.7553C11.2122 19.883 9.47061 20.4469 7.2789 20.4469H5.80563ZM5.80563 17.5003H6.99243C9.91168 17.5003 11.3713 16.3772 11.3713 14.1309C11.3713 11.9574 9.86621 10.8706 6.85602 10.8706H5.80563V17.5003ZM17.128 15.7133H20.1973V16.9001C20.7611 16.309 21.2613 15.9043 21.6978 15.686C22.1434 15.4587 22.6709 15.345 23.2802 15.345C24.0896 15.345 24.9354 15.6087 25.8175 16.1362L24.4124 18.9463C23.8304 18.528 23.262 18.3188 22.7073 18.3188C21.0339 18.3188 20.1973 19.5829 20.1973 22.1111V29H17.128V15.7133ZM39.4861 23.0797H29.9645C30.0463 24.171 30.401 25.0395 31.0285 25.6852C31.656 26.3217 32.4608 26.64 33.443 26.64C34.2069 26.64 34.839 26.4582 35.3392 26.0944C35.8303 25.7306 36.3896 25.0576 37.0171 24.0755L39.6089 25.5215C39.2088 26.2035 38.7859 26.7901 38.3403 27.2812C37.8947 27.7632 37.4172 28.1633 36.9079 28.4816C36.3987 28.7908 35.8484 29.0182 35.2573 29.1637C34.6662 29.3092 34.0251 29.382 33.3339 29.382C31.3513 29.382 29.7599 28.7454 28.5594 27.4722C27.359 26.1899 26.7588 24.4893 26.7588 22.3703C26.7588 20.2695 27.3408 18.5689 28.5049 17.2684C29.678 15.9861 31.2331 15.345 33.1702 15.345C35.1255 15.345 36.6715 15.968 37.8083 17.2139C38.9359 18.4507 39.4998 20.1649 39.4998 22.3567L39.4861 23.0797ZM36.335 20.5696C35.9076 18.9327 34.8754 18.1142 33.2384 18.1142C32.8655 18.1142 32.5154 18.1733 32.188 18.2915C31.8606 18.4007 31.5605 18.5644 31.2877 18.7826C31.024 18.9918 30.7966 19.2464 30.6056 19.5465C30.4146 19.8466 30.2691 20.1877 30.1691 20.5696H36.335ZM46.2659 18.578V29H43.1966V18.578H41.887V15.7133H43.1966V10.8434H46.2659V15.7133H48.6531V18.578H46.2659ZM53.9051 18.578V29H50.8358V18.578H49.5262V15.7133H50.8358V10.8434H53.9051V15.7133H56.2923V18.578H53.9051ZM93.0148 23.0797H83.4932C83.575 24.171 83.9297 25.0395 84.5572 25.6852C85.1847 26.3217 85.9895 26.64 86.9717 26.64C87.7356 26.64 88.3677 26.4582 88.8679 26.0944C89.3589 25.7306 89.9182 25.0576 90.5457 24.0755L93.1376 25.5215C92.7375 26.2035 92.3146 26.7901 91.869 27.2812C91.4233 27.7632 90.9459 28.1633 90.4366 28.4816C89.9273 28.7908 89.3771 29.0182 88.786 29.1637C88.1949 29.3092 87.5537 29.382 86.8626 29.382C84.88 29.382 83.2885 28.7454 82.0881 27.4722C80.8877 26.1899 80.2874 24.4893 80.2874 22.3703C80.2874 20.2695 80.8695 18.5689 82.0335 17.2684C83.2067 15.9861 84.7618 15.345 86.6989 15.345C88.6541 15.345 90.2002 15.968 91.3369 17.2139C92.4646 18.4507 93.0285 20.1649 93.0285 22.3567L93.0148 23.0797ZM89.8637 20.5696C89.4362 18.9327 88.4041 18.1142 86.7671 18.1142C86.3942 18.1142 86.0441 18.1733 85.7167 18.2915C85.3893 18.4007 85.0892 18.5644 84.8164 18.7826C84.5526 18.9918 84.3253 19.2464 84.1343 19.5465C83.9433 19.8466 83.7978 20.1877 83.6978 20.5696H89.8637ZM96.3842 15.7133H99.4536V16.9001C100.017 16.309 100.518 15.9043 100.954 15.686C101.4 15.4587 101.927 15.345 102.536 15.345C103.346 15.345 104.192 15.6087 105.074 16.1362L103.669 18.9463C103.087 18.528 102.518 18.3188 101.964 18.3188C100.29 18.3188 99.4536 19.5829 99.4536 22.1111V29H96.3842V15.7133Z" fill="#D2D2D2"/>
<path d="M70.0701 5.95975V29H67.0008V5.95975H70.0701ZM77.0272 15.7133V29H73.9579V15.7133H77.0272ZM73.494 10.1886C73.494 9.65201 73.6896 9.1882 74.0806 8.79715C74.4717 8.4061 74.94 8.21057 75.4857 8.21057C76.0404 8.21057 76.5133 8.4061 76.9044 8.79715C77.2954 9.17911 77.491 9.64746 77.491 10.2022C77.491 10.757 77.2954 11.2299 76.9044 11.6209C76.5224 12.012 76.0541 12.2075 75.4993 12.2075C74.9446 12.2075 74.4717 12.012 74.0806 11.6209C73.6896 11.2299 73.494 10.7524 73.494 10.1886Z" fill="#717CB4"/>
<path d="M63.8139 23.4698C64.7205 22.8234 64.9122 21.8363 62.9583 20.9482C62.9583 20.9482 61.6334 17.276 61.5859 16.0041L59.4542 15.9811C59.4542 16.9124 58.5765 19.5922 58.0853 20.9724C58.0853 20.9724 57.3675 21.146 56.8564 21.7069C56.3926 22.2159 56.4227 22.9283 57.2449 23.4807C55.7547 25.6458 56.0179 28.2772 56.0179 28.2772C56.7755 30.6583 64.7111 30.4887 65 28.2772L64.9996 28.1549C64.9961 26.9593 64.9915 25.3704 63.8139 23.4698Z" fill="#D2D2D2"/>
<path d="M61.5859 13.0041C61.5555 12.1877 61.6039 12.1047 61.6039 12.1047C63.7996 11.6909 62.991 10.5818 62.3951 10.4856C63.215 9.73767 63.7503 8.51185 63.7503 7.12533C63.7503 4.84697 62.3066 3 60.5257 3C58.7449 3 57.3012 4.84697 57.3012 7.12533C57.3012 8.50899 57.8342 9.73261 58.6513 10.481C57.3589 10.9247 58.1615 11.9416 59.3689 12.0953C59.4624 12.0955 59.4542 12.2983 59.4542 12.9811L61.5859 13.0041Z" fill="#D2D2D2"/>
</svg>
